<svg xmlns="http://www.w3.org/2000/svg" width="1000" height="1000" viewBox="0 0 1000 1000">
  <g id="carbon-costume-logo-circle" fill="none" fill-rule="evenodd" stroke="none" stroke-width="1">
    <circle id="Oval" cx="500" cy="500" r="500" fill="#BF4648"/>
    <path id="Combined-Shape" fill="#FFF" d="M264 674.12c-67.415-18.244-123.415-119.403-168-303.478 150.667-17.095 251.333-11.033 302 18.186 50.16 28.927 83.985 50.753 101.475 65.48l.525.444.525-.444c17.49-14.727 51.315-36.553 101.475-65.48 50.667-29.219 151.333-35.28 302-18.186-44.585 184.075-100.585 285.234-168 303.478-70 18.944-148.667 7.578-236-34.099-87.333 41.677-166 53.043-236 34.1zm8.924-171.178c-5.155 11.348 25.966 52.599 74.007 68.208 48.041 15.61 93.796 2.275 99.965-11.68 6.169-13.956-25.966-52.6-74.007-68.209-48.041-15.609-94.81.334-99.965 11.681zm454.152 0c-5.155-11.347-51.924-27.29-99.965-11.68-48.04 15.609-80.176 54.252-74.007 68.207 6.169 13.956 51.924 27.29 99.965 11.681 48.04-15.61 79.162-56.86 74.007-68.208z"/>
  </g>
</svg>
